<svg xmlns="http://www.w3.org/2000/svg"
            xmlns:xlink="http://www.w3.org/1999/xlink"
            version="1.1"
            baseProfile="full"
            viewBox="-4 -4 33 33" 
            width="132"
            height="132"
            id="qrcode-34cbc24ca47bc72b584642f11cc08122">
<symbol id="tracker"><path d="m 0 7 0 7 7 0 0 -7 -7 0 z m 1 1 5 0 0 5 -5 0 0 -5 z m 1 1 0 3 3 0 0 -3 -3 0 z" style="fill:#000000;stroke:none"></path></symbol>
<use x="0" y="-7" xlink:href="#tracker"></use>
<use x="0" y="11" xlink:href="#tracker"></use>
<use x="18" y="-7" xlink:href="#tracker"></use>
<path d="M13,1 h2v2h1v1h-3v-1h1v-1h-1v-1 M11,2 h2v1h-1v2h-2v1h-1v-1h-1v-3h1v1h1v1h1v-2 M14,5 h1v2h1v1h2v1h2v1h-1v2h-2v2h-1v-3h-1v-1h2v1h1v-1h-1v-1h-2v-1h-1v1h-1v-2h1v-2 M0,8 h4v2h-3v-1h-1v-1 M8,8 h1v1h1v1h-1v1h-1v-1h-1v-1h1v-1 M13,10 h1v2h-2v2h-1v1h-2v1h-1v1h-3v-1h2v-1h-1v-1h1v-1h1v-1h2v1h1v-2h2v-1 M2,11 h1v1h2v1h-1v1h-2v-3 M21,11 h2v1h2v2h-1v-1h-2v-1h-1v-1 M15,14 h1v1h3v1h2v2h1v3h-1v1h-1v1h-1v-2h-2v2h-2v1h-1v1h-2v-1h1v-2h1v-1h1v-3h1v-2h-4v-2h1v1h2v-1 M17,17 v3h3v-3h-3 M24,15 h1v4h-1v2h-1v-3h1v-1h-1v1h-1v-2h2v-1 M12,17 h3v1h-1v1h-1v1h-1v-1h-1v-1h1v-1 M8,21 h1v4h-1v-4 M22,21 h1v1h1v1h-2v1h3v1h-4v-1h-1v-1h1v-1h1v-1 M16,0 v1h1v-1h-1 M16,2 v1h1v-1h-1 M16,4 v1h1v-1h-1 M8,6 v1h1v-1h-1 M10,6 v1h1v-1h-1 M16,6 v1h1v-1h-1 M9,7 v1h1v-1h-1 M11,7 v1h1v-1h-1 M6,8 v1h1v-1h-1 M24,8 v1h1v-1h-1 M5,9 v1h1v-1h-1 M14,9 v1h1v-1h-1 M23,9 v1h1v-1h-1 M4,10 v1h1v-1h-1 M6,10 v1h1v-1h-1 M5,11 v1h1v-1h-1 M6,12 v1h1v-1h-1 M5,13 v1h1v-1h-1 M18,13 v1h1v-1h-1 M1,14 v1h1v-1h-1 M0,15 v1h1v-1h-1 M2,15 v1h1v-1h-1 M4,15 v1h1v-1h-1 M21,15 v1h1v-1h-1 M11,16 v1h1v-1h-1 M8,17 v1h1v-1h-1 M9,18 v1h1v-1h-1 M18,18 v1h1v-1h-1 M9,20 v1h1v-1h-1 M11,20 v1h1v-1h-1 M12,21 v1h1v-1h-1 M24,21 v1h1v-1h-1 M10,24 v1h1v-1h-1 M8,0 h2v1h-2v-1 M12,5 h1v2h-1v-2 M20,8 h3v1h-3v-1 M14,12 h1v2h-1v-2 M22,14 h2v1h-2v-1 M10,22 h2v1h-2v-1 M17,24 h3v1h-3v-1 M19,13 m1,0h1v2h-2v-1h1z" style="fill:#000000;stroke:none" ></path></svg>